<svg width="64" height="64" viewBox="0 0 64 64" fill="none" xmlns="http://www.w3.org/2000/svg">
<path d="M29.3334 45.3333C30.1745 45.7004 31.0823 45.8899 32 45.8899C32.9178 45.8899 33.8256 45.7004 34.6667 45.3333" stroke="white" stroke-width="3" stroke-linecap="round" stroke-linejoin="round"/>
<path d="M21.3333 29.3333L26.6667 34.6667M42.6667 29.3333L37.3333 34.6667M32 8C19.5627 8 12.2773 14.216 11.0347 22.92C9.7879 30.9595 11.699 39.1696 16.368 45.832C18.6151 49.1169 21.52 51.8992 24.8987 54.0027C29.3413 56.6693 34.6693 56.6693 39.112 54.0027C42.4907 51.8992 45.3956 49.1169 47.6427 45.832C52.2927 39.1611 54.2021 30.9587 52.976 22.92C51.7333 14.2133 44.448 8 32.0107 8H32Z" stroke="white" stroke-width="3" stroke-linecap="round" stroke-linejoin="round"/>
</svg>
