<svg width="64" height="64" viewBox="0 0 64 64" fill="none" xmlns="http://www.w3.org/2000/svg">
<path d="M13.3334 37.3333C13.3334 39.7847 13.8162 42.212 14.7543 44.4768C15.6924 46.7415 17.0674 48.7993 18.8007 50.5327C20.5341 52.266 22.5919 53.641 24.8566 54.5791C27.1214 55.5172 29.5487 56 32 56C34.4514 56 36.8787 55.5172 39.1435 54.5791C41.4082 53.641 43.466 52.266 45.1994 50.5327C46.9327 48.7993 48.3077 46.7415 49.2458 44.4768C50.1839 42.212 50.6667 39.7847 50.6667 37.3333C50.6667 34.882 50.1839 32.4547 49.2458 30.1899C48.3077 27.9252 46.9327 25.8674 45.1994 24.134C43.466 22.4007 41.4082 21.0257 39.1435 20.0876C36.8787 19.1495 34.4514 18.6667 32 18.6667C29.5487 18.6667 27.1214 19.1495 24.8566 20.0876C22.5919 21.0257 20.5341 22.4007 18.8007 24.134C17.0674 25.8674 15.6924 27.9252 14.7543 30.1899C13.8162 32.4547 13.3334 34.882 13.3334 37.3333Z" stroke="white" stroke-width="3" stroke-linecap="round" stroke-linejoin="round"/>
<path d="M32 29.3333V13.3333C32 11.9188 32.5619 10.5623 33.5621 9.5621C34.5623 8.5619 35.9188 8 37.3333 8H42.6667V10.6667C42.6667 12.0812 42.1048 13.4377 41.1046 14.4379C40.1044 15.4381 38.7478 16 37.3333 16H32" stroke="white" stroke-width="3" stroke-linecap="round" stroke-linejoin="round"/>
<path d="M26.6667 28C30.2214 29.7787 33.7787 29.7787 37.3334 28" stroke="white" stroke-width="3" stroke-linecap="round" stroke-linejoin="round"/>
</svg>
