<svg width="64" height="64" viewBox="0 0 64 64" fill="none" xmlns="http://www.w3.org/2000/svg">
<path d="M37.3333 21.3333C37.3333 19.9188 36.7714 18.5623 35.7712 17.5621C34.771 16.5619 33.4145 16 32 16" stroke="white" stroke-width="3" stroke-linecap="round" stroke-linejoin="round"/>
<path d="M32 45.3333C40.8374 45.3333 48 34.5867 48 21.3333C48 17.0899 46.3143 13.0202 43.3137 10.0196C40.3132 7.01904 36.2435 5.33333 32 5.33333C27.7566 5.33333 23.6869 7.01904 20.6863 10.0196C17.6858 13.0202 16 17.0899 16 21.3333C16 34.5867 23.1627 45.3333 32 45.3333ZM32 45.3333V48C32 49.4145 31.4381 50.771 30.4379 51.7712C29.4377 52.7714 28.0812 53.3333 26.6667 53.3333H18.6667C17.2522 53.3333 15.8957 53.8952 14.8955 54.8954C13.8953 55.8956 13.3334 57.2522 13.3334 58.6667" stroke="white" stroke-width="3" stroke-linecap="round" stroke-linejoin="round"/>
</svg>
