<svg width="64" height="64" viewBox="0 0 64 64" fill="none" xmlns="http://www.w3.org/2000/svg">
<path d="M45.3334 42.6667C47.3067 36.5707 52.7414 32.6347 58.6667 34.6667C58.2054 27.7467 59.0134 20.496 53.3334 14.6667C48.7787 21.728 44.3787 21.4853 40 21.3333V10.6667L32 16L24 10.6667V21.3333C19.6214 21.4853 15.2214 21.728 10.6667 14.6667C4.98671 20.496 5.79471 27.7467 5.33337 34.6667C11.2587 32.6347 16.6934 36.5707 18.6667 42.6667C25.5814 42.6667 29.0374 45.2053 32 53.3333C34.9627 45.2053 38.4187 42.6667 45.3334 42.6667Z" stroke="white" stroke-width="3" stroke-linecap="round" stroke-linejoin="round"/>
<path d="M24 21.3333C24 23.4551 24.8429 25.4899 26.3431 26.9902C27.8434 28.4905 29.8783 29.3333 32 29.3333C34.1217 29.3333 36.1566 28.4905 37.6569 26.9902C39.1571 25.4899 40 23.4551 40 21.3333" stroke="white" stroke-width="3" stroke-linecap="round" stroke-linejoin="round"/>
</svg>
