<svg width="64" height="64" viewBox="0 0 64 64" fill="none" xmlns="http://www.w3.org/2000/svg">
<path d="M53.3334 33.3333V46C53.3508 46.2963 53.3006 46.5926 53.1867 46.8667C53.0087 47.2956 52.6781 47.6433 52.2587 47.8427L37.6933 54.7227C35.9131 55.5633 33.9688 55.9993 32 55.9993C30.0313 55.9993 28.0869 55.5633 26.3067 54.7227L11.7413 47.8427C11.3976 47.6798 11.1114 47.4164 10.9205 47.0874C10.7296 46.7584 10.6429 46.3793 10.672 46V33.3333M26.6667 13.3333C26.6667 14.7478 27.2286 16.1044 28.2288 17.1046C29.229 18.1048 30.5855 18.6667 32 18.6667C33.4145 18.6667 34.7711 18.1048 35.7713 17.1046C36.7714 16.1044 37.3333 14.7478 37.3333 13.3333C37.3333 11.9188 36.7714 10.5623 35.7713 9.5621C34.7711 8.5619 33.4145 8 32 8C30.5855 8 29.229 8.5619 28.2288 9.5621C27.2286 10.5623 26.6667 11.9188 26.6667 13.3333Z" stroke="white" stroke-width="3" stroke-linecap="round" stroke-linejoin="round"/>
<path d="M32 18.6667V34.6667M11.816 32.576L26.84 26.3573C30.1444 24.9913 33.8556 24.9913 37.16 26.3573L52.184 32.576C52.5168 32.712 52.8026 32.9423 53.0064 33.2385C53.2101 33.5348 53.3229 33.8841 53.3308 34.2435C53.3388 34.603 53.2415 34.9569 53.051 35.2619C52.8606 35.5668 52.5851 35.8095 52.2586 35.96L37.6933 42.7413C35.9098 43.5705 33.9668 44.0002 32 44.0002C30.0332 44.0002 28.0901 43.5705 26.3066 42.7413L11.7413 35.96C11.413 35.8107 11.1358 35.5683 10.9439 35.263C10.752 34.9576 10.654 34.6026 10.6619 34.2421C10.6699 33.8815 10.7835 33.5312 10.9886 33.2346C11.1937 32.9379 11.4814 32.7107 11.816 32.576Z" stroke="white" stroke-width="3" stroke-linecap="round" stroke-linejoin="round"/>
</svg>
